<?xml version="1.0" encoding="UTF-8" standalone="no"?>
<!DOCTYPE svg PUBLIC "-//W3C//DTD SVG 1.1//EN"
 "http://www.w3.org/Graphics/SVG/1.1/DTD/svg11.dtd">
<!-- Generated by graphviz version 2.47.0 (20210316.0004)
 -->
<!-- Title: dependencies Pages: 1 -->
<svg width="504pt" height="284pt"
 viewBox="0.00 0.00 504.00 284.00" xmlns="http://www.w3.org/2000/svg" xmlns:xlink="http://www.w3.org/1999/xlink">
<g id="graph0" class="graph" transform="scale(1 1) rotate(0) translate(4 280)">
<title>dependencies</title>
<polygon fill="white" stroke="transparent" points="-4,4 -4,-280 500,-280 500,4 -4,4"/>
<text text-anchor="start" x="227.01" y="-42.4" font-family="Times-12" font-weight="bold" font-size="14.00">Legend</text>
<polygon fill="#ffffb3" stroke="transparent" points="14,-10 14,-30 34,-30 34,-10 14,-10"/>
<text text-anchor="start" x="37.63" y="-15.4" font-family="Times-12" font-size="14.00"> &#160;Declarations</text>
<polygon fill="#8dd3c7" stroke="transparent" points="127,-10 127,-30 147,-30 147,-10 127,-10"/>
<text text-anchor="start" x="150.73" y="-15.4" font-family="Times-12" font-size="14.00"> &#160;Module</text>
<polygon fill="#80b1d3" stroke="transparent" points="213,-10 213,-30 233,-30 233,-10 213,-10"/>
<text text-anchor="start" x="236.78" y="-15.4" font-family="Times-12" font-size="14.00"> &#160;Bootstrap</text>
<polygon fill="#fdb462" stroke="transparent" points="310,-10 310,-30 330,-30 330,-10 310,-10"/>
<text text-anchor="start" x="333.67" y="-15.4" font-family="Times-12" font-size="14.00"> &#160;Providers</text>
<polygon fill="#fb8072" stroke="transparent" points="406,-10 406,-30 426,-30 426,-10 406,-10"/>
<text text-anchor="start" x="429.73" y="-15.4" font-family="Times-12" font-size="14.00"> &#160;Exports</text>
<g id="clust1" class="cluster">
<title>cluster_GroupsModule</title>
<polygon fill="none" stroke="black" stroke-dasharray="1,5" points="109,-70 109,-268 387,-268 387,-70 109,-70"/>
</g>
<g id="clust3" class="cluster">
<title>cluster_GroupsModule_imports</title>
<polygon fill="none" stroke="black" points="271,-78 271,-130 379,-130 379,-78 271,-78"/>
</g>
<g id="clust4" class="cluster">
<title>cluster_GroupsModule_exports</title>
<polygon fill="none" stroke="black" points="199,-208 199,-260 313,-260 313,-208 199,-208"/>
</g>
<g id="clust6" class="cluster">
<title>cluster_GroupsModule_providers</title>
<polygon fill="none" stroke="black" points="117,-78 117,-130 263,-130 263,-78 117,-78"/>
</g>
<!-- UsersModule -->
<g id="node1" class="node">
<title>UsersModule</title>
<polygon fill="#8dd3c7" stroke="black" points="370.92,-122 367.92,-126 346.92,-126 343.92,-122 279.08,-122 279.08,-86 370.92,-86 370.92,-122"/>
<text text-anchor="middle" x="325" y="-99.8" font-family="Times,serif" font-size="14.00">UsersModule</text>
</g>
<!-- GroupsModule -->
<g id="node2" class="node">
<title>GroupsModule</title>
<polygon fill="#8dd3c7" stroke="black" points="306.26,-187 303.26,-191 282.26,-191 279.26,-187 205.74,-187 205.74,-151 306.26,-151 306.26,-187"/>
<text text-anchor="middle" x="256" y="-164.8" font-family="Times,serif" font-size="14.00">GroupsModule</text>
</g>
<!-- UsersModule&#45;&gt;GroupsModule -->
<g id="edge1" class="edge">
<title>UsersModule&#45;&gt;GroupsModule</title>
<path fill="none" stroke="black" d="M292.84,-122.11C292.84,-122.11 292.84,-140.99 292.84,-140.99"/>
<polygon fill="black" stroke="black" points="289.34,-140.99 292.84,-150.99 296.34,-140.99 289.34,-140.99"/>
</g>
<!-- GroupService  -->
<g id="node3" class="node">
<title>GroupService </title>
<polygon fill="#fb8072" stroke="black" points="304.75,-252 207.25,-252 207.25,-216 304.75,-216 304.75,-252"/>
<text text-anchor="middle" x="256" y="-229.8" font-family="Times,serif" font-size="14.00">GroupService </text>
</g>
<!-- GroupsModule&#45;&gt;GroupService  -->
<g id="edge2" class="edge">
<title>GroupsModule&#45;&gt;GroupService </title>
<path fill="none" stroke="black" stroke-dasharray="5,2" d="M256,-187.11C256,-187.11 256,-205.99 256,-205.99"/>
<polygon fill="black" stroke="black" points="252.5,-205.99 256,-215.99 259.5,-205.99 252.5,-205.99"/>
</g>
<!-- GroupService -->
<g id="node4" class="node">
<title>GroupService</title>
<ellipse fill="#fdb462" stroke="black" cx="190" cy="-104" rx="64.83" ry="18"/>
<text text-anchor="middle" x="190" y="-99.8" font-family="Times,serif" font-size="14.00">GroupService</text>
</g>
<!-- GroupService&#45;&gt;GroupsModule -->
<g id="edge3" class="edge">
<title>GroupService&#45;&gt;GroupsModule</title>
<path fill="none" stroke="black" d="M230.14,-118.43C230.14,-118.43 230.14,-140.89 230.14,-140.89"/>
<polygon fill="black" stroke="black" points="226.64,-140.89 230.14,-150.89 233.64,-140.89 226.64,-140.89"/>
</g>
</g>
</svg>
