<?xml version="1.0" encoding="UTF-8" standalone="no"?>
<!DOCTYPE svg PUBLIC "-//W3C//DTD SVG 1.1//EN"
 "http://www.w3.org/Graphics/SVG/1.1/DTD/svg11.dtd">
<!-- Generated by graphviz version 2.47.0 (20210316.0004)
 -->
<!-- Title: dependencies Pages: 1 -->
<svg width="756pt" height="211pt"
 viewBox="0.00 0.00 756.00 211.00" xmlns="http://www.w3.org/2000/svg" xmlns:xlink="http://www.w3.org/1999/xlink">
<g id="graph0" class="graph" transform="scale(1 1) rotate(0) translate(4 207)">
<title>dependencies</title>
<polygon fill="white" stroke="transparent" points="-4,4 -4,-207 752,-207 752,4 -4,4"/>
<text text-anchor="start" x="353.01" y="-42.4" font-family="Times-12" font-weight="bold" font-size="14.00">Legend</text>
<polygon fill="#ffffb3" stroke="transparent" points="140,-10 140,-30 160,-30 160,-10 140,-10"/>
<text text-anchor="start" x="163.63" y="-15.4" font-family="Times-12" font-size="14.00"> &#160;Declarations</text>
<polygon fill="#8dd3c7" stroke="transparent" points="253,-10 253,-30 273,-30 273,-10 253,-10"/>
<text text-anchor="start" x="276.73" y="-15.4" font-family="Times-12" font-size="14.00"> &#160;Module</text>
<polygon fill="#80b1d3" stroke="transparent" points="339,-10 339,-30 359,-30 359,-10 339,-10"/>
<text text-anchor="start" x="362.78" y="-15.4" font-family="Times-12" font-size="14.00"> &#160;Bootstrap</text>
<polygon fill="#fdb462" stroke="transparent" points="436,-10 436,-30 456,-30 456,-10 436,-10"/>
<text text-anchor="start" x="459.67" y="-15.4" font-family="Times-12" font-size="14.00"> &#160;Providers</text>
<polygon fill="#fb8072" stroke="transparent" points="532,-10 532,-30 552,-30 552,-10 532,-10"/>
<text text-anchor="start" x="555.73" y="-15.4" font-family="Times-12" font-size="14.00"> &#160;Exports</text>
<g id="clust1" class="cluster">
<title>cluster_AppModule</title>
<polygon fill="none" stroke="black" stroke-dasharray="1,5" points="8,-70 8,-195 740,-195 740,-70 8,-70"/>
</g>
<g id="clust6" class="cluster">
<title>cluster_AppModule_providers</title>
<polygon fill="none" stroke="black" points="460,-78 460,-130 732,-130 732,-78 460,-78"/>
</g>
<g id="clust3" class="cluster">
<title>cluster_AppModule_imports</title>
<polygon fill="none" stroke="black" points="16,-78 16,-130 452,-130 452,-78 16,-78"/>
</g>
<!-- AuthModule -->
<g id="node1" class="node">
<title>AuthModule</title>
<polygon fill="#8dd3c7" stroke="black" points="443.55,-122 440.55,-126 419.55,-126 416.55,-122 356.45,-122 356.45,-86 443.55,-86 443.55,-122"/>
<text text-anchor="middle" x="400" y="-99.8" font-family="Times,serif" font-size="14.00">AuthModule</text>
</g>
<!-- AppModule -->
<g id="node5" class="node">
<title>AppModule</title>
<polygon fill="#8dd3c7" stroke="black" points="385.66,-187 382.66,-191 361.66,-191 358.66,-187 302.34,-187 302.34,-151 385.66,-151 385.66,-187"/>
<text text-anchor="middle" x="344" y="-164.8" font-family="Times,serif" font-size="14.00">AppModule</text>
</g>
<!-- AuthModule&#45;&gt;AppModule -->
<g id="edge1" class="edge">
<title>AuthModule&#45;&gt;AppModule</title>
<path fill="none" stroke="black" d="M371.03,-122.11C371.03,-122.11 371.03,-140.99 371.03,-140.99"/>
<polygon fill="black" stroke="black" points="367.53,-140.99 371.03,-150.99 374.53,-140.99 367.53,-140.99"/>
</g>
<!-- GroupsModule -->
<g id="node2" class="node">
<title>GroupsModule</title>
<polygon fill="#8dd3c7" stroke="black" points="338.26,-122 335.26,-126 314.26,-126 311.26,-122 237.74,-122 237.74,-86 338.26,-86 338.26,-122"/>
<text text-anchor="middle" x="288" y="-99.8" font-family="Times,serif" font-size="14.00">GroupsModule</text>
</g>
<!-- GroupsModule&#45;&gt;AppModule -->
<g id="edge2" class="edge">
<title>GroupsModule&#45;&gt;AppModule</title>
<path fill="none" stroke="black" d="M320.28,-122.11C320.28,-122.11 320.28,-140.99 320.28,-140.99"/>
<polygon fill="black" stroke="black" points="316.78,-140.99 320.28,-150.99 323.78,-140.99 316.78,-140.99"/>
</g>
<!-- HipsModule -->
<g id="node3" class="node">
<title>HipsModule</title>
<polygon fill="#8dd3c7" stroke="black" points="219.99,-122 216.99,-126 195.99,-126 192.99,-122 134.01,-122 134.01,-86 219.99,-86 219.99,-122"/>
<text text-anchor="middle" x="177" y="-99.8" font-family="Times,serif" font-size="14.00">HipsModule</text>
</g>
<!-- HipsModule&#45;&gt;AppModule -->
<g id="edge3" class="edge">
<title>HipsModule&#45;&gt;AppModule</title>
<path fill="none" stroke="black" d="M177,-122.02C177,-139.37 177,-163 177,-163 177,-163 292.29,-163 292.29,-163"/>
<polygon fill="black" stroke="black" points="292.29,-166.5 302.29,-163 292.29,-159.5 292.29,-166.5"/>
</g>
<!-- UsersModule -->
<g id="node4" class="node">
<title>UsersModule</title>
<polygon fill="#8dd3c7" stroke="black" points="115.92,-122 112.92,-126 91.92,-126 88.92,-122 24.08,-122 24.08,-86 115.92,-86 115.92,-122"/>
<text text-anchor="middle" x="70" y="-99.8" font-family="Times,serif" font-size="14.00">UsersModule</text>
</g>
<!-- UsersModule&#45;&gt;AppModule -->
<g id="edge4" class="edge">
<title>UsersModule&#45;&gt;AppModule</title>
<path fill="none" stroke="black" d="M70,-122.28C70,-143.32 70,-175 70,-175 70,-175 292.09,-175 292.09,-175"/>
<polygon fill="black" stroke="black" points="292.09,-178.5 302.09,-175 292.09,-171.5 292.09,-178.5"/>
</g>
<!-- AppService -->
<g id="node6" class="node">
<title>AppService</title>
<ellipse fill="#fdb462" stroke="black" cx="667" cy="-104" rx="56.74" ry="18"/>
<text text-anchor="middle" x="667" y="-99.8" font-family="Times,serif" font-size="14.00">AppService</text>
</g>
<!-- AppService&#45;&gt;AppModule -->
<g id="edge5" class="edge">
<title>AppService&#45;&gt;AppModule</title>
<path fill="none" stroke="black" d="M667,-122.28C667,-143.32 667,-175 667,-175 667,-175 395.9,-175 395.9,-175"/>
<polygon fill="black" stroke="black" points="395.9,-171.5 385.9,-175 395.9,-178.5 395.9,-171.5"/>
</g>
<!-- RedisService -->
<g id="node7" class="node">
<title>RedisService</title>
<ellipse fill="#fdb462" stroke="black" cx="530" cy="-104" rx="61.97" ry="18"/>
<text text-anchor="middle" x="530" y="-99.8" font-family="Times,serif" font-size="14.00">RedisService</text>
</g>
<!-- RedisService&#45;&gt;AppModule -->
<g id="edge6" class="edge">
<title>RedisService&#45;&gt;AppModule</title>
<path fill="none" stroke="black" d="M530,-122.02C530,-139.37 530,-163 530,-163 530,-163 395.74,-163 395.74,-163"/>
<polygon fill="black" stroke="black" points="395.74,-159.5 385.74,-163 395.74,-166.5 395.74,-159.5"/>
</g>
</g>
</svg>
