<?xml version="1.0" encoding="UTF-8" standalone="no"?>
<!DOCTYPE svg PUBLIC "-//W3C//DTD SVG 1.1//EN"
 "http://www.w3.org/Graphics/SVG/1.1/DTD/svg11.dtd">
<!-- Generated by graphviz version 2.47.0 (20210316.0004)
 -->
<!-- Title: dependencies Pages: 1 -->
<svg width="1404pt" height="382pt"
 viewBox="0.00 0.00 1404.00 382.00" xmlns="http://www.w3.org/2000/svg" xmlns:xlink="http://www.w3.org/1999/xlink">
<g id="graph0" class="graph" transform="scale(1 1) rotate(0) translate(4 378)">
<title>dependencies</title>
<polygon fill="white" stroke="transparent" points="-4,4 -4,-378 1400,-378 1400,4 -4,4"/>
<text text-anchor="start" x="677.01" y="-42.4" font-family="Times-12" font-weight="bold" font-size="14.00">Legend</text>
<polygon fill="#ffffb3" stroke="transparent" points="464,-10 464,-30 484,-30 484,-10 464,-10"/>
<text text-anchor="start" x="487.63" y="-15.4" font-family="Times-12" font-size="14.00"> &#160;Declarations</text>
<polygon fill="#8dd3c7" stroke="transparent" points="577,-10 577,-30 597,-30 597,-10 577,-10"/>
<text text-anchor="start" x="600.73" y="-15.4" font-family="Times-12" font-size="14.00"> &#160;Module</text>
<polygon fill="#80b1d3" stroke="transparent" points="663,-10 663,-30 683,-30 683,-10 663,-10"/>
<text text-anchor="start" x="686.78" y="-15.4" font-family="Times-12" font-size="14.00"> &#160;Bootstrap</text>
<polygon fill="#fdb462" stroke="transparent" points="760,-10 760,-30 780,-30 780,-10 760,-10"/>
<text text-anchor="start" x="783.67" y="-15.4" font-family="Times-12" font-size="14.00"> &#160;Providers</text>
<polygon fill="#fb8072" stroke="transparent" points="856,-10 856,-30 876,-30 876,-10 856,-10"/>
<text text-anchor="start" x="879.73" y="-15.4" font-family="Times-12" font-size="14.00"> &#160;Exports</text>
<g id="clust1" class="cluster">
<title>cluster_AppModule</title>
<polygon fill="none" stroke="black" stroke-dasharray="1,5" points="276,-146 276,-358 826,-358 826,-146 276,-146"/>
</g>
<g id="clust3" class="cluster">
<title>cluster_AppModule_imports</title>
<polygon fill="none" stroke="black" points="316,-154 316,-282 538,-282 538,-154 316,-154"/>
</g>
<g id="clust6" class="cluster">
<title>cluster_AppModule_providers</title>
<polygon fill="none" stroke="black" points="546,-230 546,-282 818,-282 818,-230 546,-230"/>
</g>
<g id="clust7" class="cluster">
<title>cluster_AuthModule</title>
<polygon fill="none" stroke="black" stroke-dasharray="1,5" points="834,-146 834,-214 1388,-214 1388,-146 834,-146"/>
</g>
<g id="clust9" class="cluster">
<title>cluster_AuthModule_imports</title>
<polygon fill="none" stroke="black" points="1230,-154 1230,-206 1380,-206 1380,-154 1230,-154"/>
</g>
<g id="clust10" class="cluster">
<title>cluster_AuthModule_exports</title>
<polygon fill="none" stroke="black" points="1116,-154 1116,-206 1222,-206 1222,-154 1116,-154"/>
</g>
<g id="clust12" class="cluster">
<title>cluster_AuthModule_providers</title>
<polygon fill="none" stroke="black" points="842,-154 842,-206 1108,-206 1108,-154 842,-154"/>
</g>
<g id="clust13" class="cluster">
<title>cluster_GroupsModule</title>
<polygon fill="none" stroke="black" stroke-dasharray="1,5" points="834,-298 834,-366 1118,-366 1118,-298 834,-298"/>
</g>
<g id="clust16" class="cluster">
<title>cluster_GroupsModule_exports</title>
<polygon fill="none" stroke="black" points="996,-306 996,-358 1110,-358 1110,-306 996,-306"/>
</g>
<g id="clust18" class="cluster">
<title>cluster_GroupsModule_providers</title>
<polygon fill="none" stroke="black" points="842,-306 842,-358 988,-358 988,-306 842,-306"/>
</g>
<g id="clust19" class="cluster">
<title>cluster_HipsModule</title>
<polygon fill="none" stroke="black" stroke-dasharray="1,5" points="293,-70 293,-138 441,-138 441,-70 293,-70"/>
</g>
<g id="clust24" class="cluster">
<title>cluster_HipsModule_providers</title>
<polygon fill="none" stroke="black" points="301,-78 301,-130 433,-130 433,-78 301,-78"/>
</g>
<g id="clust25" class="cluster">
<title>cluster_RedisCustomModule</title>
<polygon fill="none" stroke="black" stroke-dasharray="1,5" points="1242,-222 1242,-290 1368,-290 1368,-222 1242,-222"/>
</g>
<g id="clust28" class="cluster">
<title>cluster_RedisCustomModule_exports</title>
<polygon fill="none" stroke="black" points="1250,-230 1250,-282 1360,-282 1360,-230 1250,-230"/>
</g>
<g id="clust31" class="cluster">
<title>cluster_UsersModule</title>
<polygon fill="none" stroke="black" stroke-dasharray="1,5" points="8,-222 8,-290 268,-290 268,-222 8,-222"/>
</g>
<g id="clust34" class="cluster">
<title>cluster_UsersModule_exports</title>
<polygon fill="none" stroke="black" points="156,-230 156,-282 260,-282 260,-230 156,-230"/>
</g>
<g id="clust36" class="cluster">
<title>cluster_UsersModule_providers</title>
<polygon fill="none" stroke="black" points="16,-230 16,-282 148,-282 148,-230 16,-230"/>
</g>
<!-- AuthModule -->
<g id="node1" class="node">
<title>AuthModule</title>
<polygon fill="#8dd3c7" stroke="black" points="529.55,-274 526.55,-278 505.55,-278 502.55,-274 442.45,-274 442.45,-238 529.55,-238 529.55,-274"/>
<text text-anchor="middle" x="486" y="-251.8" font-family="Times,serif" font-size="14.00">AuthModule</text>
</g>
<!-- AppModule -->
<g id="node5" class="node">
<title>AppModule</title>
<polygon fill="#8dd3c7" stroke="black" points="471.66,-350 468.66,-354 447.66,-354 444.66,-350 388.34,-350 388.34,-314 471.66,-314 471.66,-350"/>
<text text-anchor="middle" x="430" y="-327.8" font-family="Times,serif" font-size="14.00">AppModule</text>
</g>
<!-- AuthModule&#45;&gt;AppModule -->
<g id="edge1" class="edge">
<title>AuthModule&#45;&gt;AppModule</title>
<path fill="none" stroke="black" d="M457.03,-274.01C457.03,-274.01 457.03,-303.85 457.03,-303.85"/>
<polygon fill="black" stroke="black" points="453.53,-303.85 457.03,-313.85 460.53,-303.85 453.53,-303.85"/>
</g>
<!-- AuthService  -->
<g id="node9" class="node">
<title>AuthService </title>
<polygon fill="#fb8072" stroke="black" points="1213.98,-198 1124.02,-198 1124.02,-162 1213.98,-162 1213.98,-198"/>
<text text-anchor="middle" x="1169" y="-175.8" font-family="Times,serif" font-size="14.00">AuthService </text>
</g>
<!-- AuthModule&#45;&gt;AuthService  -->
<g id="edge9" class="edge">
<title>AuthModule&#45;&gt;AuthService </title>
<path fill="none" stroke="black" stroke-dasharray="5,2" d="M521.72,-237.85C521.72,-224.26 521.72,-208 521.72,-208 521.72,-208 1169,-208 1169,-208 1169,-208 1169,-207.02 1169,-207.02"/>
<polygon fill="black" stroke="black" points="1172.5,-208.21 1169,-198.21 1165.5,-208.21 1172.5,-208.21"/>
</g>
<!-- GroupsModule -->
<g id="node2" class="node">
<title>GroupsModule</title>
<polygon fill="#8dd3c7" stroke="black" points="424.26,-274 421.26,-278 400.26,-278 397.26,-274 323.74,-274 323.74,-238 424.26,-238 424.26,-274"/>
<text text-anchor="middle" x="374" y="-251.8" font-family="Times,serif" font-size="14.00">GroupsModule</text>
</g>
<!-- GroupsModule&#45;&gt;AppModule -->
<g id="edge2" class="edge">
<title>GroupsModule&#45;&gt;AppModule</title>
<path fill="none" stroke="black" d="M397.22,-274.01C397.22,-274.01 397.22,-303.85 397.22,-303.85"/>
<polygon fill="black" stroke="black" points="393.72,-303.85 397.22,-313.85 400.72,-303.85 393.72,-303.85"/>
</g>
<!-- GroupService  -->
<g id="node12" class="node">
<title>GroupService </title>
<polygon fill="#fb8072" stroke="black" points="1101.75,-350 1004.25,-350 1004.25,-314 1101.75,-314 1101.75,-350"/>
<text text-anchor="middle" x="1053" y="-327.8" font-family="Times,serif" font-size="14.00">GroupService </text>
</g>
<!-- GroupsModule&#45;&gt;GroupService  -->
<g id="edge13" class="edge">
<title>GroupsModule&#45;&gt;GroupService </title>
<path fill="none" stroke="black" stroke-dasharray="5,2" d="M406.28,-274.24C406.28,-281.43 406.28,-288 406.28,-288 406.28,-288 1052.34,-288 1052.34,-288 1052.34,-288 1052.34,-303.85 1052.34,-303.85"/>
<polygon fill="black" stroke="black" points="1048.84,-303.85 1052.34,-313.85 1055.84,-303.85 1048.84,-303.85"/>
</g>
<!-- HipsModule -->
<g id="node3" class="node">
<title>HipsModule</title>
<polygon fill="#8dd3c7" stroke="black" points="409.99,-198 406.99,-202 385.99,-202 382.99,-198 324.01,-198 324.01,-162 409.99,-162 409.99,-198"/>
<text text-anchor="middle" x="367" y="-175.8" font-family="Times,serif" font-size="14.00">HipsModule</text>
</g>
<!-- HipsModule&#45;&gt;AppModule -->
<g id="edge3" class="edge">
<title>HipsModule&#45;&gt;AppModule</title>
<path fill="none" stroke="black" d="M367,-198.49C367,-210.14 367,-223 367,-223 367,-223 435.26,-223 435.26,-223 435.26,-223 435.26,-303.51 435.26,-303.51"/>
<polygon fill="black" stroke="black" points="431.76,-303.51 435.26,-313.51 438.76,-303.51 431.76,-303.51"/>
</g>
<!-- UsersModule -->
<g id="node4" class="node">
<title>UsersModule</title>
<polygon fill="#8dd3c7" stroke="black" points="519.92,-198 516.92,-202 495.92,-202 492.92,-198 428.08,-198 428.08,-162 519.92,-162 519.92,-198"/>
<text text-anchor="middle" x="474" y="-175.8" font-family="Times,serif" font-size="14.00">UsersModule</text>
</g>
<!-- UsersModule&#45;&gt;AuthModule -->
<g id="edge8" class="edge">
<title>UsersModule&#45;&gt;AuthModule</title>
<path fill="none" stroke="black" d="M480.97,-198.01C480.97,-198.01 480.97,-227.85 480.97,-227.85"/>
<polygon fill="black" stroke="black" points="477.47,-227.85 480.97,-237.85 484.47,-227.85 477.47,-227.85"/>
</g>
<!-- UsersModule&#45;&gt;GroupsModule -->
<g id="edge12" class="edge">
<title>UsersModule&#45;&gt;GroupsModule</title>
<path fill="none" stroke="black" d="M432.94,-198.01C432.94,-220.49 432.94,-256 432.94,-256 432.94,-256 432.09,-256 432.09,-256"/>
<polygon fill="black" stroke="black" points="434.49,-252.5 424.49,-256 434.49,-259.5 434.49,-252.5"/>
</g>
<!-- UsersModule&#45;&gt;AppModule -->
<g id="edge4" class="edge">
<title>UsersModule&#45;&gt;AppModule</title>
<path fill="none" stroke="black" d="M439.9,-198.03C439.9,-198.03 439.9,-303.99 439.9,-303.99"/>
<polygon fill="black" stroke="black" points="436.4,-303.99 439.9,-313.99 443.4,-303.99 436.4,-303.99"/>
</g>
<!-- UserService  -->
<g id="node16" class="node">
<title>UserService </title>
<polygon fill="#fb8072" stroke="black" points="251.9,-274 164.1,-274 164.1,-238 251.9,-238 251.9,-274"/>
<text text-anchor="middle" x="208" y="-251.8" font-family="Times,serif" font-size="14.00">UserService </text>
</g>
<!-- UsersModule&#45;&gt;UserService  -->
<g id="edge18" class="edge">
<title>UsersModule&#45;&gt;UserService </title>
<path fill="none" stroke="black" stroke-dasharray="5,2" d="M430.61,-198.24C430.61,-213.57 430.61,-233 430.61,-233 430.61,-233 208,-233 208,-233 208,-233 208,-233.49 208,-233.49"/>
<polygon fill="black" stroke="black" points="204.5,-227.88 208,-237.88 211.5,-227.88 204.5,-227.88"/>
</g>
<!-- AppService -->
<g id="node6" class="node">
<title>AppService</title>
<ellipse fill="#fdb462" stroke="black" cx="753" cy="-256" rx="56.74" ry="18"/>
<text text-anchor="middle" x="753" y="-251.8" font-family="Times,serif" font-size="14.00">AppService</text>
</g>
<!-- AppService&#45;&gt;AppModule -->
<g id="edge5" class="edge">
<title>AppService&#45;&gt;AppModule</title>
<path fill="none" stroke="black" d="M753,-274.2C753,-298.36 753,-338 753,-338 753,-338 481.9,-338 481.9,-338"/>
<polygon fill="black" stroke="black" points="481.9,-334.5 471.9,-338 481.9,-341.5 481.9,-334.5"/>
</g>
<!-- RedisService -->
<g id="node7" class="node">
<title>RedisService</title>
<ellipse fill="#fdb462" stroke="black" cx="616" cy="-256" rx="61.97" ry="18"/>
<text text-anchor="middle" x="616" y="-251.8" font-family="Times,serif" font-size="14.00">RedisService</text>
</g>
<!-- RedisService&#45;&gt;AppModule -->
<g id="edge6" class="edge">
<title>RedisService&#45;&gt;AppModule</title>
<path fill="none" stroke="black" d="M616,-274.03C616,-294.77 616,-326 616,-326 616,-326 481.74,-326 481.74,-326"/>
<polygon fill="black" stroke="black" points="481.74,-322.5 471.74,-326 481.74,-329.5 481.74,-322.5"/>
</g>
<!-- RedisCustomModule -->
<g id="node8" class="node">
<title>RedisCustomModule</title>
<polygon fill="#8dd3c7" stroke="black" points="1372.5,-198 1369.5,-202 1348.5,-202 1345.5,-198 1237.5,-198 1237.5,-162 1372.5,-162 1372.5,-198"/>
<text text-anchor="middle" x="1305" y="-175.8" font-family="Times,serif" font-size="14.00">RedisCustomModule</text>
</g>
<!-- RedisService&#45;&gt;RedisCustomModule -->
<g id="edge17" class="edge">
<title>RedisService&#45;&gt;RedisCustomModule</title>
<path fill="none" stroke="black" d="M616,-237.89C616,-228.1 616,-218 616,-218 616,-218 1251.38,-218 1251.38,-218 1251.38,-218 1251.38,-208.11 1251.38,-208.11"/>
<polygon fill="black" stroke="black" points="1254.88,-208.11 1251.38,-198.11 1247.88,-208.11 1254.88,-208.11"/>
</g>
<!-- RedisCustomModule&#45;&gt;AuthModule -->
<g id="edge7" class="edge">
<title>RedisCustomModule&#45;&gt;AuthModule</title>
<path fill="none" stroke="black" d="M1244.44,-198.04C1244.44,-205.75 1244.44,-213 1244.44,-213 1244.44,-213 527.76,-213 527.76,-213 527.76,-213 527.76,-227.51 527.76,-227.51"/>
<polygon fill="black" stroke="black" points="524.26,-227.51 527.76,-237.51 531.26,-227.51 524.26,-227.51"/>
</g>
<!-- RedisService  -->
<g id="node15" class="node">
<title>RedisService </title>
<polygon fill="#fb8072" stroke="black" points="1351.86,-274 1258.14,-274 1258.14,-238 1351.86,-238 1351.86,-274"/>
<text text-anchor="middle" x="1305" y="-251.8" font-family="Times,serif" font-size="14.00">RedisService </text>
</g>
<!-- RedisCustomModule&#45;&gt;RedisService  -->
<g id="edge16" class="edge">
<title>RedisCustomModule&#45;&gt;RedisService </title>
<path fill="none" stroke="black" stroke-dasharray="5,2" d="M1305,-198.01C1305,-198.01 1305,-227.85 1305,-227.85"/>
<polygon fill="black" stroke="black" points="1301.5,-227.85 1305,-237.85 1308.5,-227.85 1301.5,-227.85"/>
</g>
<!-- AuthService -->
<g id="node10" class="node">
<title>AuthService</title>
<ellipse fill="#fdb462" stroke="black" cx="1041" cy="-180" rx="59.11" ry="18"/>
<text text-anchor="middle" x="1041" y="-175.8" font-family="Times,serif" font-size="14.00">AuthService</text>
</g>
<!-- AuthService&#45;&gt;AuthModule -->
<g id="edge10" class="edge">
<title>AuthService&#45;&gt;AuthModule</title>
<path fill="none" stroke="black" d="M993.04,-190.69C993.04,-196.7 993.04,-203 993.04,-203 993.04,-203 525.75,-203 525.75,-203 525.75,-203 525.75,-227.76 525.75,-227.76"/>
<polygon fill="black" stroke="black" points="522.25,-227.76 525.75,-237.76 529.25,-227.76 522.25,-227.76"/>
</g>
<!-- JwtStrategy -->
<g id="node11" class="node">
<title>JwtStrategy</title>
<ellipse fill="#fdb462" stroke="black" cx="907" cy="-180" rx="56.76" ry="18"/>
<text text-anchor="middle" x="907" y="-175.8" font-family="Times,serif" font-size="14.00">JwtStrategy</text>
</g>
<!-- JwtStrategy&#45;&gt;AuthModule -->
<g id="edge11" class="edge">
<title>JwtStrategy&#45;&gt;AuthModule</title>
<path fill="none" stroke="black" d="M850.04,-180C743.27,-180 523.74,-180 523.74,-180 523.74,-180 523.74,-227.99 523.74,-227.99"/>
<polygon fill="black" stroke="black" points="520.24,-227.99 523.74,-237.99 527.24,-227.99 520.24,-227.99"/>
</g>
<!-- GroupService -->
<g id="node13" class="node">
<title>GroupService</title>
<ellipse fill="#fdb462" stroke="black" cx="915" cy="-332" rx="64.83" ry="18"/>
<text text-anchor="middle" x="915" y="-327.8" font-family="Times,serif" font-size="14.00">GroupService</text>
</g>
<!-- GroupService&#45;&gt;GroupsModule -->
<g id="edge14" class="edge">
<title>GroupService&#45;&gt;GroupsModule</title>
<path fill="none" stroke="black" d="M907,-313.97C907,-307.15 907,-301 907,-301 907,-301 415.33,-301 415.33,-301 415.33,-301 415.33,-284.04 415.33,-284.04"/>
<polygon fill="black" stroke="black" points="418.83,-284.04 415.33,-274.04 411.83,-284.04 418.83,-284.04"/>
</g>
<!-- HipsService -->
<g id="node14" class="node">
<title>HipsService</title>
<ellipse fill="#fdb462" stroke="black" cx="367" cy="-104" rx="58.46" ry="18"/>
<text text-anchor="middle" x="367" y="-99.8" font-family="Times,serif" font-size="14.00">HipsService</text>
</g>
<!-- HipsService&#45;&gt;HipsModule -->
<g id="edge15" class="edge">
<title>HipsService&#45;&gt;HipsModule</title>
<path fill="none" stroke="black" d="M367,-122.01C367,-122.01 367,-151.85 367,-151.85"/>
<polygon fill="black" stroke="black" points="363.5,-151.85 367,-161.85 370.5,-151.85 363.5,-151.85"/>
</g>
<!-- UserService -->
<g id="node17" class="node">
<title>UserService</title>
<ellipse fill="#fdb462" stroke="black" cx="82" cy="-256" rx="58.44" ry="18"/>
<text text-anchor="middle" x="82" y="-251.8" font-family="Times,serif" font-size="14.00">UserService</text>
</g>
<!-- UserService&#45;&gt;UsersModule -->
<g id="edge19" class="edge">
<title>UserService&#45;&gt;UsersModule</title>
<path fill="none" stroke="black" d="M82,-237.79C82,-232.45 82,-228 82,-228 82,-228 437.58,-228 437.58,-228 437.58,-228 437.58,-208.15 437.58,-208.15"/>
<polygon fill="black" stroke="black" points="441.08,-208.15 437.58,-198.15 434.08,-208.15 441.08,-208.15"/>
</g>
</g>
</svg>
